
<!-- Generator: visioncortex VTracer 0.6.4 -->
<svg version="1.1" xmlns="http://www.w3.org/2000/svg" viewBox="0 0 299 332" preserveAspectRatio="xMidYMid meet">
<path d="M0 0 C98.67 0 197.34 0 299 0 C299 109.56 299 219.12 299 332 C200.33 332 101.66 332 0 332 C0 222.44 0 112.88 0 0 Z " fill="#F2F2F3" transform="translate(0,0)"/>
<path d="M0 0 C1.709 -0.006 1.709 -0.006 3.453 -0.013 C4.695 -0.012 5.936 -0.012 7.215 -0.012 C8.529 -0.015 9.843 -0.018 11.197 -0.022 C14.797 -0.031 18.396 -0.033 21.995 -0.034 C24.247 -0.034 26.498 -0.036 28.749 -0.039 C36.61 -0.048 44.471 -0.052 52.333 -0.052 C59.648 -0.051 66.964 -0.062 74.28 -0.077 C80.57 -0.09 86.861 -0.096 93.152 -0.095 C96.904 -0.095 100.657 -0.098 104.41 -0.108 C108.599 -0.12 112.787 -0.115 116.976 -0.109 C118.211 -0.115 119.446 -0.12 120.719 -0.126 C132.362 -0.084 141.318 2.081 150.305 9.884 C159.31 19.28 160.919 29.884 160.729 42.341 C160.687 44.022 160.645 45.703 160.602 47.384 C160.577 49.112 160.554 50.839 160.534 52.567 C160.479 56.757 160.393 60.945 160.289 65.134 C159.363 64.974 158.437 64.814 157.482 64.649 C131.398 60.442 107.674 74.153 87.18 88.623 C80.983 93.103 74.964 97.809 68.961 102.544 C55.394 113.228 41.453 123.788 26.289 132.134 C25.511 132.569 24.732 133.005 23.93 133.454 C11.684 139.967 -2.973 144.663 -16.773 141.009 C-23.621 138.733 -30.042 134.672 -34.711 129.134 C-35.165 126.476 -35.165 126.476 -35.101 123.493 C-35.088 122.423 -35.075 121.353 -35.062 120.251 C-35.029 119.14 -34.995 118.029 -34.961 116.884 C-34.942 115.757 -34.924 114.63 -34.906 113.47 C-34.859 110.69 -34.793 107.912 -34.711 105.134 C-33.956 105.889 -33.202 106.644 -32.425 107.423 C-31.082 108.765 -31.082 108.765 -29.711 110.134 C-29.134 110.719 -28.558 111.304 -27.964 111.907 C-21.606 117.928 -11.94 124.571 -2.836 124.571 C-1.289 124.355 -1.289 124.355 0.289 124.134 C0.949 121.494 1.609 118.854 2.289 116.134 C2.949 116.134 3.609 116.134 4.289 116.134 C4.289 114.484 4.289 112.834 4.289 111.134 C3.052 111.092 1.814 111.051 0.539 111.009 C-11.478 109.613 -21.526 101.662 -28.851 92.438 C-32.608 87.2 -34.823 83.524 -34.872 76.979 C-34.886 75.401 -34.886 75.401 -34.901 73.792 C-34.905 72.654 -34.909 71.517 -34.914 70.345 C-34.919 69.172 -34.925 67.999 -34.931 66.79 C-34.94 64.304 -34.947 61.817 -34.951 59.33 C-34.96 55.545 -34.991 51.759 -35.023 47.974 C-35.03 45.556 -35.035 43.138 -35.039 40.72 C-35.051 39.594 -35.063 38.469 -35.076 37.31 C-35.044 25.771 -32.164 17.693 -24.046 9.442 C-16.94 2.969 -9.609 0.016 0 0 Z " fill="#192835" transform="translate(69.71052551269531,19.866287231445313)"/>
<path d="M0 0 C0 7.92 0 15.84 0 24 C-1.98 23.67 -3.96 23.34 -6 23 C-19.014 21.597 -32.397 26.564 -44 32 C-44.962 32.441 -45.923 32.882 -46.914 33.336 C-64.294 41.636 -80.056 53.597 -95.062 65.562 C-110.963 78.203 -127.748 90.076 -147 97 C-147.842 97.318 -148.684 97.637 -149.551 97.965 C-162.225 102.138 -175.09 101.346 -187.082 95.801 C-190.466 93.712 -192.662 92.255 -195 89 C-195.595 85.373 -195.472 81.85 -195.312 78.188 C-195.279 76.719 -195.279 76.719 -195.244 75.221 C-195.185 72.812 -195.103 70.407 -195 68 C-193.546 68.866 -193.546 68.866 -192.062 69.75 C-190.712 70.507 -189.358 71.257 -188 72 C-187.324 72.376 -186.648 72.753 -185.951 73.141 C-179.655 76.32 -174.034 76.574 -167.062 76.438 C-166.042 76.445 -165.022 76.452 -163.971 76.459 C-136.456 76.231 -111.554 55.021 -90.867 39.039 C-82.034 32.224 -73.152 25.579 -63.875 19.375 C-63.047 18.819 -62.219 18.264 -61.366 17.691 C-55.424 13.775 -49.289 10.326 -43 7 C-42.253 6.602 -41.506 6.204 -40.736 5.794 C-28.068 -0.886 -14.078 -2.816 0 0 Z " fill="#1C2A36" transform="translate(230,99)"/>
<path d="M0 0 C1.315 -0.003 2.63 -0.005 3.984 -0.008 C7.25 0.125 7.25 0.125 9.25 1.125 C9.25 8.715 9.25 16.305 9.25 24.125 C7.27 23.795 5.29 23.465 3.25 23.125 C-29.871 20.568 -57.49 42.142 -82.078 61.535 C-95.645 72.219 -109.586 82.779 -124.75 91.125 C-125.529 91.561 -126.307 91.996 -127.109 92.445 C-139.355 98.958 -154.013 103.654 -167.812 100 C-174.66 97.725 -181.082 93.663 -185.75 88.125 C-186.204 85.468 -186.204 85.468 -186.141 82.484 C-186.128 81.414 -186.115 80.345 -186.102 79.242 C-186.068 78.131 -186.035 77.02 -186 75.875 C-185.982 74.748 -185.964 73.622 -185.945 72.461 C-185.898 69.681 -185.832 66.904 -185.75 64.125 C-184.996 64.88 -184.242 65.636 -183.465 66.414 C-182.121 67.756 -182.121 67.756 -180.75 69.125 C-180.174 69.71 -179.598 70.295 -179.004 70.898 C-172.645 76.92 -162.98 83.562 -153.875 83.562 C-152.328 83.346 -152.328 83.346 -150.75 83.125 C-150.09 80.485 -149.43 77.845 -148.75 75.125 C-148.09 75.125 -147.43 75.125 -146.75 75.125 C-146.75 73.475 -146.75 71.825 -146.75 70.125 C-145.564 70.062 -144.378 69.999 -143.156 69.934 C-118.371 68.22 -101.223 54.937 -82.066 40.195 C-29.668 -0.059 -29.668 -0.059 0 0 Z " fill="#4A90D9" transform="translate(220.75,60.875)"/>
<path d="M0 0 C0 7.26 0 14.52 0 22 C-3.135 22.062 -6.27 22.124 -9.5 22.188 C-41.719 23.493 -67.198 45.094 -91.918 63.699 C-101.284 70.721 -110.657 77.47 -121 83 C-121.604 83.368 -122.208 83.736 -122.831 84.115 C-129.767 87.876 -137.041 87.538 -144.711 87.412 C-146.995 87.375 -149.278 87.371 -151.562 87.371 C-164.328 87.311 -175.659 86.288 -185.188 76.828 C-186.858 74.928 -188.461 73.008 -190 71 C-189.01 70.505 -189.01 70.505 -188 70 C-186.343 70.71 -184.687 71.425 -183.043 72.164 C-168.664 78.048 -152.008 74.87 -138.109 69.047 C-128.165 64.599 -118.923 59.226 -110 53 C-109.424 52.602 -108.849 52.203 -108.256 51.793 C-101.437 47.056 -94.802 42.11 -88.235 37.029 C-32.006 -6.401 -32.006 -6.401 0 0 Z " fill="#1C2A36" transform="translate(230,138)"/>
<path d="M0 0 C0.427 15.389 0.43 27.847 -10.629 39.754 C-18.219 46.78 -26.937 49.132 -37.085 49.114 C-37.778 49.114 -38.472 49.114 -39.186 49.114 C-41.464 49.113 -43.742 49.106 -46.02 49.098 C-47.604 49.096 -49.189 49.094 -50.774 49.093 C-54.934 49.09 -59.095 49.08 -63.256 49.069 C-67.506 49.058 -71.756 49.054 -76.006 49.049 C-84.337 49.038 -92.669 49.021 -101 49 C-98.041 45.986 -95.035 43.437 -91.625 40.938 C-87.635 37.985 -83.699 34.991 -79.818 31.898 C-27.287 -9.937 -27.287 -9.937 0 0 Z " fill="#1C2A37" transform="translate(230,176)"/>
<path d="M0 0 C5.61 0 11.22 0 17 0 C20.298 8.207 23.561 16.42 26.715 24.684 C27.877 27.681 29.073 30.662 30.283 33.64 C38 52.667 38 52.667 38 57 C34.985 58.005 32.958 58.103 29.812 58.062 C28.911 58.053 28.01 58.044 27.082 58.035 C26.395 58.024 25.708 58.012 25 58 C24.326 56.566 23.661 55.127 23 53.688 C22.629 52.887 22.258 52.086 21.875 51.262 C21 49 21 49 21 46 C8.625 46.495 8.625 46.495 -4 47 C-5.98 51.95 -5.98 51.95 -8 57 C-10.525 58.262 -12.312 58.099 -15.125 58.062 C-16.035 58.053 -16.945 58.044 -17.883 58.035 C-18.581 58.024 -19.28 58.012 -20 58 C-21.244 53.718 -20.71 51.357 -19.043 47.266 C-18.594 46.145 -18.145 45.025 -17.683 43.87 C-17.189 42.675 -16.696 41.481 -16.188 40.25 C-15.686 39.01 -15.185 37.769 -14.686 36.528 C-13.654 33.967 -12.614 31.408 -11.569 28.852 C-9.566 23.946 -7.608 19.023 -5.648 14.101 C-3.773 9.397 -1.887 4.699 0 0 Z " fill="#1D2A36" transform="translate(41,247)"/>
<path d="M0 0 C1.979 -0.027 3.958 -0.046 5.938 -0.062 C7.04 -0.074 8.142 -0.086 9.277 -0.098 C12 0 12 0 13 1 C13.123 3.51 13.186 5.996 13.211 8.508 C13.239 10.068 13.268 11.628 13.297 13.188 C13.338 15.649 13.375 18.111 13.401 20.573 C13.429 22.948 13.475 25.321 13.523 27.695 C13.527 28.422 13.53 29.148 13.533 29.896 C13.653 34.934 14.616 38.533 17 43 C21.236 45.824 25.025 45.667 30 45 C32.934 43.204 34.472 42.056 36 39 C36.145 36.17 36.234 33.36 36.281 30.527 C36.3 29.689 36.318 28.851 36.337 27.987 C36.416 24.392 36.484 20.796 36.552 17.201 C36.604 14.58 36.661 11.96 36.719 9.34 C36.732 8.52 36.746 7.7 36.76 6.856 C36.887 1.113 36.887 1.113 38 0 C39.998 -0.099 42 -0.13 44 -0.125 C45.093 -0.128 46.186 -0.13 47.312 -0.133 C50 0 50 0 51 1 C51.139 3.695 51.213 6.362 51.238 9.059 C51.246 9.877 51.254 10.695 51.263 11.538 C51.277 13.279 51.287 15.02 51.295 16.761 C51.312 19.396 51.356 22.028 51.4 24.662 C51.496 35.053 50.757 42.827 45.25 51.875 C38.398 58.347 30.419 59.344 21.34 59.293 C15.35 58.768 10.921 56.28 6 53 C6 52.34 6 51.68 6 51 C5.34 51 4.68 51 4 51 C-1.718 41.463 -0.444 30.558 -0.25 19.875 C-0.23 17.945 -0.212 16.016 -0.195 14.086 C-0.152 9.39 -0.083 4.695 0 0 Z " fill="#1D2A36" transform="translate(141,247)"/>
<path d="M0 0 C1.5 0.004 1.5 0.004 3.031 0.008 C4.032 0.005 5.032 0.003 6.062 0 C8.531 0.133 8.531 0.133 9.531 1.133 C9.642 3.8 9.693 6.445 9.707 9.113 C9.73 10.769 9.754 12.424 9.779 14.08 C9.814 16.696 9.844 19.311 9.857 21.927 C9.873 24.448 9.913 26.968 9.957 29.488 C9.955 30.264 9.953 31.039 9.951 31.837 C10.067 37.022 11.117 40.011 14.531 44.133 C18.251 45.993 22.481 45.706 26.531 45.133 C30.149 42.475 31.789 40.492 32.531 36.133 C32.67 33.456 32.763 30.799 32.812 28.121 C32.831 27.352 32.849 26.583 32.868 25.791 C32.947 22.508 33.015 19.225 33.083 15.942 C33.135 13.543 33.192 11.145 33.25 8.746 C33.264 7.998 33.277 7.25 33.291 6.48 C33.418 1.246 33.418 1.246 34.531 0.133 C36.551 0.06 38.573 0.049 40.594 0.07 C42.251 0.084 42.251 0.084 43.941 0.098 C44.796 0.109 45.651 0.121 46.531 0.133 C46.631 5.968 46.703 11.802 46.751 17.638 C46.771 19.62 46.798 21.603 46.833 23.585 C46.882 26.445 46.904 29.304 46.922 32.164 C46.943 33.041 46.963 33.919 46.984 34.823 C46.987 41.84 45.203 47.028 40.602 52.375 C39.96 52.914 39.318 53.453 38.656 54.008 C37.701 54.839 37.701 54.839 36.727 55.688 C29.988 60.124 22.3 59.838 14.531 59.133 C7.2 57.195 2.706 53.28 -1.579 47.08 C-4.099 42.569 -3.995 38.362 -3.895 33.297 C-3.89 31.917 -3.89 31.917 -3.885 30.509 C-3.874 28.578 -3.854 26.646 -3.825 24.715 C-3.781 21.746 -3.764 18.778 -3.752 15.809 C-3.739 13.93 -3.724 12.051 -3.707 10.172 C-3.7 9.28 -3.692 8.389 -3.685 7.47 C-3.57 0.192 -3.57 0.192 0 0 Z " fill="#1A2733" transform="translate(206.46875,246.8671875)"/>
<path d="M0 0 C0.858 -0.003 1.715 -0.006 2.599 -0.01 C3.531 -0.008 4.463 -0.006 5.424 -0.003 C6.85 -0.005 6.85 -0.005 8.305 -0.006 C10.319 -0.007 12.333 -0.005 14.347 -0.001 C17.442 0.004 20.536 -0.001 23.631 -0.007 C25.583 -0.007 27.535 -0.005 29.486 -0.003 C30.885 -0.006 30.885 -0.006 32.311 -0.01 C33.169 -0.006 34.027 -0.003 34.91 0 C35.669 0.001 36.427 0.002 37.209 0.002 C38.955 0.129 38.955 0.129 39.955 1.129 C40.696 5.896 40.563 9.872 37.787 13.911 C36.802 15.167 35.794 16.406 34.768 17.629 C33.672 19.008 32.577 20.387 31.482 21.766 C30.907 22.474 30.332 23.182 29.74 23.912 C26.694 27.697 23.771 31.575 20.83 35.442 C17.73 39.475 17.73 39.475 16.185 41.482 C15.056 42.994 14.002 44.56 12.955 46.129 C22.195 46.129 31.435 46.129 40.955 46.129 C42.464 49.148 42.13 51.802 41.955 55.129 C39.955 58.129 39.955 58.129 38.096 58.504 C37.342 58.503 36.589 58.502 35.812 58.502 C34.958 58.508 34.104 58.514 33.224 58.521 C32.3 58.511 31.376 58.502 30.424 58.493 C29.004 58.493 29.004 58.493 27.555 58.494 C25.551 58.492 23.546 58.482 21.542 58.466 C18.468 58.442 15.393 58.445 12.318 58.452 C10.374 58.446 8.43 58.439 6.486 58.43 C5.562 58.431 4.638 58.432 3.686 58.433 C2.832 58.423 1.978 58.414 1.098 58.404 C0.344 58.399 -0.409 58.395 -1.185 58.39 C-3.045 58.129 -3.045 58.129 -5.045 56.129 C-5.875 52.238 -5.734 48.573 -4.012 44.965 C-2.534 42.742 -0.957 40.656 0.705 38.567 C1.285 37.803 1.864 37.04 2.462 36.253 C3.669 34.665 4.886 33.084 6.111 31.509 C8.502 28.423 10.831 25.293 13.161 22.161 C15.412 19.14 17.683 16.134 19.955 13.129 C18.872 13.092 18.872 13.092 17.768 13.053 C14.518 12.938 11.268 12.815 8.018 12.692 C6.313 12.633 6.313 12.633 4.574 12.573 C3.495 12.531 2.415 12.489 1.303 12.446 C-0.198 12.391 -0.198 12.391 -1.728 12.335 C-4.045 12.129 -4.045 12.129 -5.045 11.129 C-5.143 9.465 -5.175 7.797 -5.17 6.129 C-5.172 5.222 -5.175 4.314 -5.178 3.379 C-4.951 -0.466 -3.434 0.004 0 0 Z " fill="#1B2835" transform="translate(90.044921875,246.87060546875)"/>
<path d="M0 0 C4.377 2.312 7.606 4.823 10.289 9.055 C10.867 9.9 11.444 10.746 12.039 11.617 C14.337 17.936 14.526 25.127 11.789 31.367 C8.621 36.748 3.923 40.766 -1.648 43.492 C-8.631 44.775 -15.487 44.858 -21.711 41.055 C-27.579 35.833 -31.664 29.735 -32.211 21.742 C-31.962 15.401 -29.243 9.796 -24.961 5.16 C-17.706 -1.266 -9.479 -3.305 0 0 Z " fill="#EFF1F1" transform="translate(92.7109375,52.9453125)"/>
<path d="M0 0 C5 5 5 5 6.676 6.738 C11.043 10.939 15.812 13.681 21.188 16.375 C22.222 16.894 22.222 16.894 23.277 17.423 C38.104 24.595 56.857 21.974 72 17 C73.661 16.64 75.326 16.296 77 16 C66.066 27.992 46.415 35.838 30.52 37.215 C19.126 37.656 10.509 33.413 1.899 26.253 C-0.493 23.416 -0.469 22.025 -0.391 18.359 C-0.378 17.289 -0.365 16.22 -0.352 15.117 C-0.318 14.006 -0.285 12.895 -0.25 11.75 C-0.232 10.623 -0.214 9.497 -0.195 8.336 C-0.148 5.556 -0.082 2.779 0 0 Z " fill="#1B2936" transform="translate(35,125)"/>
<path d="M0 0 C2 3 2 3 2 6 C1.694 7.34 1.365 8.675 1 10 C-1.667 10.667 -4.333 11.333 -7 12 C-7.082 15.044 -6.976 17.072 -6 20 C-4.02 20 -2.04 20 0 20 C-3.827 24.425 -7.398 26.31 -13 28 C-14.004 28.353 -15.008 28.706 -16.043 29.07 C-28.6 33.056 -43.089 33.863 -56 31 C-52.25 29 -52.25 29 -50 29 C-49.34 26.36 -48.68 23.72 -48 21 C-47.34 21 -46.68 21 -46 21 C-46 19.35 -46 17.7 -46 16 C-44.814 15.937 -43.628 15.874 -42.406 15.809 C-25.925 14.666 -13.543 9.44 0 0 Z " fill="#4887C9" transform="translate(120,115)"/>
<path d="M0 0 C0 1.646 -0.005 3.292 -0.035 4.938 C-0.044 5.618 -0.053 6.299 -0.062 7 C-0.074 7.681 -0.086 8.361 -0.098 9.062 C-0.076 11.22 -0.076 11.22 1 14 C1.99 14.33 2.98 14.66 4 15 C-2.664 17.014 -8.751 17.272 -15.688 17.188 C-16.707 17.187 -17.726 17.186 -18.775 17.186 C-23.34 17.159 -27.532 17.007 -32 16 C-28.25 14 -28.25 14 -26 14 C-25.34 11.36 -24.68 8.72 -24 6 C-23.34 6 -22.68 6 -22 6 C-22 4.35 -22 2.7 -22 1 C-18.897 0.635 -15.792 0.285 -12.688 -0.062 C-11.806 -0.166 -10.925 -0.27 -10.018 -0.377 C-8.746 -0.517 -8.746 -0.517 -7.449 -0.66 C-6.279 -0.794 -6.279 -0.794 -5.085 -0.93 C-3 -1 -3 -1 0 0 Z " fill="#5A94CC" transform="translate(96,130)"/>
<path d="M0 0 C1.592 2.387 2.533 4.136 3.508 6.758 C3.772 7.466 4.036 8.173 4.309 8.902 C4.578 9.636 4.847 10.369 5.125 11.125 C5.402 11.866 5.679 12.607 5.965 13.371 C8 18.855 8 18.855 8 20 C3.05 20 -1.9 20 -7 20 C-6.335 16.677 -5.822 14.244 -4.59 11.23 C-4.322 10.57 -4.055 9.909 -3.779 9.229 C-3.502 8.555 -3.224 7.881 -2.938 7.188 C-2.515 6.148 -2.515 6.148 -2.084 5.088 C-1.393 3.39 -0.697 1.695 0 0 Z " fill="#E9EBEC" transform="translate(49,261)"/>
<path d="M0 0 C2.31 0 4.62 0 7 0 C7.625 1.75 7.625 1.75 8 4 C7.351 5.342 6.683 6.675 6 8 C5.832 10.667 5.832 10.667 6 13 C8.64 13.33 11.28 13.66 14 14 C14 14.33 14 14.66 14 15 C10.937 15.027 7.875 15.047 4.812 15.062 C3.516 15.075 3.516 15.075 2.193 15.088 C-2.003 15.104 -5.909 15.076 -10 14 C-6.25 12 -6.25 12 -4 12 C-3.34 9.36 -2.68 6.72 -2 4 C-1.34 4 -0.68 4 0 4 C0 2.68 0 1.36 0 0 Z " fill="#ABC5DB" transform="translate(74,132)"/>
<path d="M0 0 C4.62 0 9.24 0 14 0 C13.67 1.65 13.34 3.3 13 5 C13.351 5.66 13.701 6.32 14.062 7 C15 9 15 9 14.188 11.688 C13 14 13 14 12 15 C9.329 15.141 6.676 15.042 4 15 C4.66 14.67 5.32 14.34 6 14 C5.794 13.072 5.588 12.144 5.375 11.188 C5 8 5 8 7 5 C7 4.01 7 3.02 7 2 C4.69 1.67 2.38 1.34 0 1 C0 0.67 0 0.34 0 0 Z " fill="#85ADD2" transform="translate(74,131)"/>
<path d="M0 0 C2 3 2 3 2 6 C1.694 7.34 1.365 8.675 1 10 C-1.062 10.516 -3.091 11.016 -5.188 11.375 C-5.786 11.581 -6.384 11.787 -7 12 C-7.33 12.99 -7.66 13.98 -8 15 C-9.562 13.875 -9.562 13.875 -11 12 C-11.312 9.188 -11.312 9.188 -10 6 C-6.847 3.643 -3.5 1.791 0 0 Z " fill="#4487CF" transform="translate(120,115)"/>
<path d="M0 0 C0.888 0.307 0.888 0.307 1.793 0.621 C6.785 2.343 6.785 2.343 11.938 3.438 C14 4 14 4 15.312 6.062 C15.653 7.022 15.653 7.022 16 8 C15.01 9.485 15.01 9.485 14 11 C14.66 11.33 15.32 11.66 16 12 C15.67 12.66 15.34 13.32 15 14 C9.055 10.394 4.034 6.743 0 1 C0 0.67 0 0.34 0 0 Z " fill="#26313B" transform="translate(40,208)"/>
<path d="M0 0 C1.98 0 3.96 0 6 0 C7.202 6.228 6.932 9.371 4 15 C2.68 14.34 1.36 13.68 0 13 C0.371 12.299 0.743 11.597 1.125 10.875 C2.238 7.216 1.394 5.485 0 2 C0 1.34 0 0.68 0 0 Z " fill="#6DA0CF" transform="translate(86,132)"/>
<path d="M0 0 C-5.94 3.96 -5.94 3.96 -12 8 C-12.66 7.67 -13.32 7.34 -14 7 C-14.625 4.938 -14.625 4.938 -15 3 C-13.066 2.302 -11.128 1.617 -9.188 0.938 C-8.109 0.555 -7.03 0.172 -5.918 -0.223 C-3 -1 -3 -1 0 0 Z " fill="#19293B" transform="translate(112,142)"/>
<path d="M0 0 C2.31 0 4.62 0 7 0 C6.67 1.65 6.34 3.3 6 5 C4.02 5.66 2.04 6.32 0 7 C-0.66 6.34 -1.32 5.68 -2 5 C-1.34 3.35 -0.68 1.7 0 0 Z " fill="#192937" transform="translate(92,146)"/>
<path d="M0 0 C0.99 0.33 1.98 0.66 3 1 C3 2.65 3 4.3 3 6 C1.35 6.66 -0.3 7.32 -2 8 C-2.66 6.35 -3.32 4.7 -4 3 C-2.188 1.438 -2.188 1.438 0 0 Z " fill="#17293A" transform="translate(151,85)"/>
<path d="M0 0 C0.66 0.33 1.32 0.66 2 1 C2 1.66 2 2.32 2 3 C2.66 3 3.32 3 4 3 C4 4.32 4 5.64 4 7 C3.01 7 2.02 7 1 7 C0.67 7.99 0.34 8.98 0 10 C-1.562 8.875 -1.562 8.875 -3 7 C-2.812 3.875 -2.812 3.875 -2 1 C-1.34 0.67 -0.68 0.34 0 0 Z " fill="#4383C6" transform="translate(112,120)"/>
<path d="M0 0 C-0.33 0.99 -0.66 1.98 -1 3 C-2.98 3.33 -4.96 3.66 -7 4 C-7 4.66 -7 5.32 -7 6 C-8.32 6 -9.64 6 -11 6 C-11.33 5.01 -11.66 4.02 -12 3 C-10.376 2.497 -8.751 1.997 -7.125 1.5 C-6.22 1.222 -5.315 0.943 -4.383 0.656 C-2 0 -2 0 0 0 Z " fill="#E5EFF4" transform="translate(203,85)"/>
<path d="M0 0 C0 1.98 0 3.96 0 6 C-2.97 6 -5.94 6 -9 6 C-3.2 0 -3.2 0 0 0 Z " fill="#E6EEF4" transform="translate(125,133)"/>
<path d="M0 0 C2.546 2.546 3.178 4.508 4 8 C3.25 10.812 3.25 10.812 2 13 C1.01 13.495 1.01 13.495 0 14 C-0.195 12.042 -0.38 10.084 -0.562 8.125 C-0.667 7.034 -0.771 5.944 -0.879 4.82 C-1 2 -1 2 0 0 Z " fill="#7AA7D2" transform="translate(85,132)"/>
<path d="M0 0 C3 1 3 1 5 4 C3.68 5.32 2.36 6.64 1 8 C0.01 7.01 -0.98 6.02 -2 5 C-1.34 3.35 -0.68 1.7 0 0 Z " fill="#4B93DE" transform="translate(186,70)"/>
<path d="M0 0 C2.64 0.33 5.28 0.66 8 1 C5.647 3.724 3.375 4.814 0 6 C0 4.02 0 2.04 0 0 Z " fill="#15273A" transform="translate(107,117)"/>
<path d="M0 0 C3.96 0 7.92 0 12 0 C12.33 0.66 12.66 1.32 13 2 C7.06 2.495 7.06 2.495 1 3 C0.67 2.01 0.34 1.02 0 0 Z " fill="#1A232B" transform="translate(141,247)"/>
<path d="M0 0 C2.97 0 5.94 0 9 0 C6.688 2.5 6.688 2.5 4 5 C3.01 5 2.02 5 1 5 C0.67 3.35 0.34 1.7 0 0 Z " fill="#3F78B2" transform="translate(111,135)"/>
<path d="M0 0 C1.32 0.66 2.64 1.32 4 2 C3.75 3.875 3.75 3.875 3 6 C0.938 7.25 0.938 7.25 -1 8 C-1 7.01 -1 6.02 -1 5 C-0.34 4.67 0.32 4.34 1 4 C0.01 3.34 -0.98 2.68 -2 2 C-1.34 1.34 -0.68 0.68 0 0 Z " fill="#4F90D5" transform="translate(148,94)"/>
<path d="M0 0 C1.32 0 2.64 0 4 0 C4.33 2.31 4.66 4.62 5 7 C4.34 7 3.68 7 3 7 C0.704 4.439 0 3.52 0 0 Z " fill="#659AD0" transform="translate(88,132)"/>
<path d="M0 0 C1.32 0.99 2.64 1.98 4 3 C3.25 4.938 3.25 4.938 2 7 C-0.125 7.75 -0.125 7.75 -2 8 C-1.67 7.01 -1.34 6.02 -1 5 C-1 4.01 -1 3.02 -1 2 C-0.67 1.34 -0.34 0.68 0 0 Z " fill="#4A8BCF" transform="translate(135,117)"/>
<path d="M0 0 C2.567 3.85 1.833 5.586 1 10 C-0.32 9.67 -1.64 9.34 -3 9 C-2.34 9 -1.68 9 -1 9 C-1.206 8.072 -1.412 7.144 -1.625 6.188 C-2 3 -2 3 0 0 Z " fill="#94B7D5" transform="translate(81,136)"/>
<path d="M0 0 C0.66 0 1.32 0 2 0 C3.688 2.312 3.688 2.312 5 5 C4.67 5.99 4.34 6.98 4 8 C1 6 1 6 0.312 2.875 C0.209 1.926 0.106 0.977 0 0 Z M2 8 C2.33 8.66 2.66 9.32 3 10 C2.34 9.67 1.68 9.34 1 9 C1.33 8.67 1.66 8.34 2 8 Z " fill="#6F9FCF" transform="translate(86,132)"/>
<path d="M0 0 C-0.66 1.32 -1.32 2.64 -2 4 C-4.31 3.01 -6.62 2.02 -9 1 C-9 0.67 -9 0.34 -9 0 C-3.375 -1.125 -3.375 -1.125 0 0 Z " fill="#6197C8" transform="translate(96,130)"/>
<path d="M0 0 C0.33 0.99 0.66 1.98 1 3 C-2.3 3 -5.6 3 -9 3 C-8.67 2.34 -8.34 1.68 -8 1 C-5.301 0.426 -2.762 0 0 0 Z " fill="#E8ECF0" transform="translate(56,278)"/>
<path d="M0 0 C-0.312 1.938 -0.312 1.938 -1 4 C-1.99 4.33 -2.98 4.66 -4 5 C-4.66 3.35 -5.32 1.7 -6 0 C-2.25 -1.125 -2.25 -1.125 0 0 Z " fill="#223443" transform="translate(103,145)"/>
<path d="M0 0 C4.62 0 9.24 0 14 0 C10 3 10 3 7.422 2.855 C6.099 2.525 6.099 2.525 4.75 2.188 C3.858 1.975 2.966 1.762 2.047 1.543 C1.371 1.364 0.696 1.185 0 1 C0 0.67 0 0.34 0 0 Z " fill="#84A4C1" transform="translate(74,131)"/>
<path d="M0 0 C1.32 0.66 2.64 1.32 4 2 C4 2.33 4 2.66 4 3 C0.689 4.129 -2.59 5.213 -6 6 C-4 4 -2 2 0 0 Z " fill="#5192D2" transform="translate(156,88)"/>
<path d="M0 0 C2.352 0.599 4.686 1.269 7 2 C7.33 2.66 7.66 3.32 8 4 C6.35 4.33 4.7 4.66 3 5 C2.01 3.35 1.02 1.7 0 0 Z " fill="#262D34" transform="translate(40,208)"/>
<path d="M0 0 C0.66 0.99 1.32 1.98 2 3 C-0.375 4.562 -0.375 4.562 -3 6 C-3.66 5.67 -4.32 5.34 -5 5 C-5 4.34 -5 3.68 -5 3 C-2.5 1.375 -2.5 1.375 0 0 Z " fill="#4782C4" transform="translate(120,115)"/>
<path d="M0 0 C1.207 0.031 1.207 0.031 2.438 0.062 C2.107 1.052 1.778 2.043 1.438 3.062 C0.778 3.062 0.118 3.062 -0.562 3.062 C-0.893 3.722 -1.222 4.382 -1.562 5.062 C-2.222 3.743 -2.882 2.422 -3.562 1.062 C-2.562 0.062 -2.562 0.062 0 0 Z " fill="#4D92DC" transform="translate(161.5625,85.9375)"/>
<path d="M0 0 C0 3 0 3 -2 6 C-3.32 6 -4.64 6 -6 6 C-6 5.34 -6 4.68 -6 4 C-4.039 2.611 -2.038 1.274 0 0 Z " fill="#E7ECEE" transform="translate(115,178)"/>
</svg>